<?xml version="1.0" encoding="UTF-8"?>
<svg xmlns="http://www.w3.org/2000/svg" xmlns:xlink="http://www.w3.org/1999/xlink" width="15px" height="8px" viewBox="0 0 15 8" version="1.1">
<g id="surface1">
<path style=" stroke:none;fill-rule:nonzero;fill:rgb(0%,0%,0%);fill-opacity:1;" d="M 7.285156 0.0234375 C 7.007812 0.0898438 6.75 0.292969 6.628906 0.542969 C 6.519531 0.769531 6.515625 0.785156 6.515625 1.949219 L 6.515625 2.992188 L 5.445312 3 C 4.410156 3.003906 4.371094 3.003906 4.273438 3.039062 C 3.949219 3.152344 3.707031 3.390625 3.613281 3.695312 C 3.558594 3.863281 3.558594 4.140625 3.613281 4.308594 C 3.6875 4.546875 3.878906 4.777344 4.097656 4.890625 C 4.316406 5 4.269531 5 5.445312 5.003906 L 6.515625 5.011719 L 6.515625 6.054688 C 6.515625 6.902344 6.523438 7.121094 6.542969 7.214844 C 6.636719 7.6875 7.082031 8.03125 7.558594 8 C 7.960938 7.96875 8.289062 7.714844 8.429688 7.324219 L 8.476562 7.199219 L 8.480469 6.101562 L 8.484375 5.007812 L 9.464844 5.007812 C 10 5.007812 10.488281 5.003906 10.542969 4.996094 C 10.921875 4.960938 11.261719 4.6875 11.382812 4.328125 C 11.433594 4.175781 11.445312 3.949219 11.410156 3.789062 C 11.316406 3.355469 10.96875 3.050781 10.535156 3.003906 C 10.484375 3 10 2.996094 9.464844 2.996094 L 8.484375 2.996094 L 8.484375 1.949219 C 8.484375 0.804688 8.480469 0.761719 8.386719 0.566406 C 8.273438 0.332031 8.035156 0.125 7.804688 0.0507812 C 7.660156 0.00390625 7.425781 -0.0078125 7.285156 0.0234375 Z M 7.285156 0.0234375 "/>
</g>
</svg>
