<?xml version="1.0" encoding="UTF-8"?>
<svg xmlns="http://www.w3.org/2000/svg" xmlns:xlink="http://www.w3.org/1999/xlink" width="21px" height="15px" viewBox="0 0 21 15" version="1.1">
<g id="surface1">
<path style=" stroke:none;fill-rule:nonzero;fill:rgb(0%,0%,0%);fill-opacity:1;" d="M 9.65625 0.191406 C 8.828125 0.316406 8.097656 0.71875 7.53125 1.355469 C 7.113281 1.816406 6.808594 2.402344 6.652344 3.023438 C 6.570312 3.375 6.546875 3.539062 6.546875 3.941406 C 6.546875 4.320312 6.554688 4.359375 6.621094 4.695312 C 6.734375 5.273438 6.996094 6.085938 7.382812 7.066406 C 7.496094 7.375 7.5625 7.523438 7.792969 8.078125 C 8.34375 9.398438 9.367188 11.585938 10.15625 13.125 L 10.253906 13.308594 L 10.671875 12.40625 C 12.363281 8.765625 13.429688 5.960938 13.667969 4.554688 C 13.730469 4.144531 13.730469 3.773438 13.667969 3.355469 C 13.535156 2.542969 13.183594 1.832031 12.632812 1.253906 C 12.101562 0.695312 11.476562 0.359375 10.722656 0.210938 C 10.507812 0.167969 9.875 0.160156 9.65625 0.191406 Z M 10.417969 0.804688 C 11.050781 0.894531 11.609375 1.1875 12.058594 1.691406 C 12.46875 2.125 12.714844 2.652344 12.828125 3.273438 C 12.871094 3.53125 12.871094 4.058594 12.828125 4.320312 C 12.671875 5.191406 12.207031 5.917969 11.507812 6.378906 C 10.902344 6.773438 10.140625 6.90625 9.433594 6.738281 C 8.726562 6.5625 8.113281 6.109375 7.710938 5.457031 C 7.234375 4.695312 7.113281 3.726562 7.382812 2.847656 C 7.808594 1.472656 9.082031 0.621094 10.417969 0.804688 Z M 10.417969 0.804688 "/>
<path style=" stroke:none;fill-rule:nonzero;fill:rgb(0%,0%,0%);fill-opacity:1;" d="M 9.84375 1.019531 C 9.210938 1.089844 8.6875 1.347656 8.242188 1.800781 C 7.53125 2.535156 7.277344 3.683594 7.597656 4.695312 C 7.898438 5.617188 8.605469 6.292969 9.5 6.511719 C 10.074219 6.644531 10.679688 6.570312 11.214844 6.285156 C 11.96875 5.875 12.476562 5.132812 12.617188 4.226562 C 12.65625 4.007812 12.65625 3.574219 12.625 3.355469 C 12.4375 2.175781 11.589844 1.253906 10.5 1.054688 C 10.335938 1.03125 9.976562 1.003906 9.84375 1.019531 Z M 10.394531 1.839844 C 10.746094 1.917969 11.074219 2.101562 11.335938 2.386719 C 11.609375 2.671875 11.761719 2.996094 11.84375 3.40625 C 11.886719 3.589844 11.886719 3.960938 11.84375 4.160156 C 11.679688 4.972656 11.097656 5.566406 10.34375 5.699219 C 10.164062 5.734375 9.835938 5.726562 9.679688 5.691406 C 9.074219 5.550781 8.570312 5.089844 8.34375 4.476562 C 8.234375 4.183594 8.195312 3.773438 8.242188 3.457031 C 8.398438 2.476562 9.195312 1.773438 10.113281 1.816406 C 10.203125 1.816406 10.328125 1.832031 10.394531 1.839844 Z M 10.394531 1.839844 "/>
<path style=" stroke:none;fill-rule:nonzero;fill:rgb(0%,0%,0%);fill-opacity:1;" d="M 9.785156 13.804688 C 9.753906 13.804688 9.65625 13.8125 9.554688 13.820312 C 9.320312 13.84375 9.007812 13.902344 8.851562 13.953125 C 8.546875 14.046875 8.441406 14.15625 8.554688 14.28125 C 8.671875 14.398438 9 14.488281 9.523438 14.546875 C 9.8125 14.582031 10.695312 14.589844 10.976562 14.554688 C 11.65625 14.488281 12.050781 14.347656 12.050781 14.1875 C 12.050781 14.019531 11.566406 13.863281 10.851562 13.804688 C 10.679688 13.792969 9.910156 13.785156 9.785156 13.804688 Z M 9.785156 13.804688 "/>
</g>
</svg>
